<?xml version="1.0" encoding="utf-8"?>
<!-- Generator: Adobe Illustrator 19.2.0, SVG Export Plug-In . SVG Version: 6.00 Build 0)  -->
<svg version="1.1"
	 id="svg2" inkscape:version="0.48.5 r10040" sodipodi:docname="CameraShutter.svg" xmlns:cc="http://creativecommons.org/ns#" xmlns:dc="http://purl.org/dc/elements/1.1/" xmlns:inkscape="http://www.inkscape.org/namespaces/inkscape" xmlns:rdf="http://www.w3.org/1999/02/22-rdf-syntax-ns#" xmlns:sodipodi="http://sodipodi.sourceforge.net/DTD/sodipodi-0.dtd" xmlns:svg="http://www.w3.org/2000/svg"
	 xmlns="http://www.w3.org/2000/svg" xmlns:xlink="http://www.w3.org/1999/xlink" x="0px" y="0px" viewBox="0 0 516.1 516.1"
	 style="enable-background:new 0 0 516.1 516.1;" xml:space="preserve">
<style type="text/css">
	.st0{fill:#003374;}
	.st1{fill:none;stroke:#003374;stroke-width:10;}
	.st2{fill:#F9E900;}
</style>
<sodipodi:namedview  bordercolor="#666666" borderopacity="1.0" id="base" inkscape:current-layer="layer1" inkscape:cx="332.47524" inkscape:cy="435.94252" inkscape:document-units="px" inkscape:guide-bbox="true" inkscape:object-nodes="true" inkscape:pageopacity="0.0" inkscape:pageshadow="2" inkscape:snap-center="true" inkscape:window-height="706" inkscape:window-maximized="1" inkscape:window-width="1366" inkscape:window-x="-8" inkscape:window-y="-8" inkscape:zoom="0.41399696" pagecolor="#ffffff" showgrid="false" showguides="true">
	<sodipodi:guide  id="guide3783" orientation="1,0" position="495.05444,514.05697"></sodipodi:guide>
	<sodipodi:guide  id="guide3785" orientation="0,1" position="64.903998,515.81598"></sodipodi:guide>
</sodipodi:namedview>
<circle class="st0" cx="163.4" cy="267.6" r="14"/>
<circle class="st0" cx="262.6" cy="186.5" r="14"/>
<circle class="st0" cx="163.4" cy="186.5" r="14"/>
<circle class="st0" cx="262.6" cy="108.9" r="14"/>
<circle class="st0" cx="262.6" cy="267.8" r="14"/>
<circle class="st0" cx="312.2" cy="269.1" r="14"/>
<circle class="st0" cx="163.4" cy="349" r="14"/>
<circle class="st0" cx="213" cy="309.2" r="14"/>
<circle class="st0" cx="163.4" cy="146.3" r="14"/>
<circle class="st0" cx="213" cy="146.3" r="14"/>
<circle class="st0" cx="213" cy="348.6" r="14"/>
<circle class="st0" cx="213" cy="227.2" r="14"/>
<circle class="st0" cx="213" cy="268" r="14"/>
<circle class="st0" cx="213" cy="108.9" r="14"/>
<circle class="st0" cx="262.6" cy="309.2" r="14"/>
<circle class="st0" cx="312.2" cy="228.2" r="14"/>
<circle class="st0" cx="312.2" cy="187.6" r="14"/>
<circle class="st0" cx="411.4" cy="309.2" r="14"/>
<circle class="st0" cx="411.4" cy="349.7" r="14"/>
<circle class="st0" cx="411.4" cy="268.9" r="14"/>
<circle class="st0" cx="312.2" cy="350" r="14"/>
<circle class="st0" cx="262.6" cy="147.7" r="14"/>
<circle class="st0" cx="312.2" cy="147.4" r="14"/>
<circle class="st0" cx="361.8" cy="309.2" r="14"/>
<circle class="st0" cx="361.8" cy="187.6" r="14"/>
<circle class="st0" cx="361.8" cy="269.1" r="14"/>
<circle class="st0" cx="361.8" cy="228.4" r="14"/>
<circle class="st0" cx="113.9" cy="348.8" r="14"/>
<circle class="st0" cx="262.5" cy="388.9" r="14"/>
<circle class="st0" cx="163.3" cy="389.3" r="14"/>
<circle class="st0" cx="212.9" cy="388.9" r="14"/>
<circle class="st0" cx="312.1" cy="390.3" r="14"/>
<circle class="st0" cx="361.7" cy="390" r="14"/>
<circle class="st0" cx="213" cy="187.6" r="14"/>
<circle class="st0" cx="113.9" cy="227.4" r="14"/>
<circle class="st0" cx="113.9" cy="186.7" r="14"/>
<circle class="st0" cx="113.9" cy="268.2" r="14"/>
<circle class="st0" cx="262.6" cy="348.6" r="14"/>
<g id="layer1" transform="translate(0,-52.3622)" inkscape:groupmode="layer" inkscape:label="Layer 1">
	
		<image style="overflow:visible;opacity:0.8;enable-background:new    ;" width="529" height="529" xlink:href="8B3DF2884685FFF2.png"  transform="matrix(1 0 0 1 -1.4413 51.9209)">
	</image>
	<g>
		<g>
			
				<path id="path3826_12_" sodipodi:cx="433.35544" sodipodi:cy="374.71558" sodipodi:rx="213.14218" sodipodi:ry="199.00005" sodipodi:type="arc" class="st1" d="
				M508.1,310.4c0,138.1-111.9,250-250,250s-250-111.9-250-250l0,0c0-138.1,111.9-250,250-250S508.1,172.3,508.1,310.4L508.1,310.4z
				"/>
			<path id="path3841_12_" inkscape:connector-curvature="0" class="st2" d="M258.1,81.4c-78.2,0-147.3,39.2-188.9,99.2L109.9,282
				l154-200.5C262,81.4,260,81.4,258.1,81.4L258.1,81.4z"/>
			<path id="path3839_12_" inkscape:connector-curvature="0" class="st2" d="M278.3,84.2L214,163.9l247.2,39.6
				C425.1,137.3,357.4,90.8,278.3,84.2z"/>
			<path id="path3837_12_" inkscape:connector-curvature="0" class="st2" d="M62.8,189.4c-21.4,34.9-33.8,76-33.8,120
				c0,35,7.8,68.2,21.8,97.9l104.3,22.1L62.8,189.4L62.8,189.4z"/>
			<path id="path3835_13_" inkscape:connector-curvature="0" class="st2" d="M364,199.4l90.3,234.1c21.4-34.9,33.8-76,33.8-120
				c0-35-7.8-68.2-21.8-97.9"/>
			<path id="path3833_12_" inkscape:connector-curvature="0" class="st2" d="M414.4,357.6L254.2,541.4c1.9,0,3.9,0.1,5.8,0.1
				c78.2,0,147.3-39,188.8-98.7L414.4,357.6z"/>
			<path id="path3828_12_" inkscape:connector-curvature="0" class="st2" d="M56,420.4c36.1,66.2,103.8,112.7,182.8,119.2l68.8-73.6
				L56,420.4L56,420.4z"/>
		</g>
	</g>
</g>
</svg>
